<?xml version="1.0" standalone="no"?>
<!DOCTYPE svg PUBLIC "-//W3C//DTD SVG 20010904//EN"
        "http://www.w3.org/TR/2001/REC-SVG-20010904/DTD/svg10.dtd">
<svg version="1.0" xmlns="http://www.w3.org/2000/svg"
     width="700.000000pt" height="700.000000pt" viewBox="0 0 700.000000 700.000000"
     preserveAspectRatio="xMidYMid meet">
    <metadata>
        Created by potrace 1.11, written by Peter Selinger 2001-2013
    </metadata>
    <g transform="translate(0.000000,700.000000) scale(0.100000,-0.100000)"
       fill="#000000" stroke="none">
        <path d="M0 3500 l0 -3500 3500 0 3500 0 0 3500 0 3500 -3500 0 -3500 0 0
-3500z m1275 1791 c106 -47 199 -132 284 -261 l56 -85 11 115 c7 63 12 139 13
168 l1 52 156 0 c143 0 155 -1 150 -17 -20 -72 -14 -879 10 -1244 l7 -95 -144
-32 c-79 -18 -147 -32 -150 -32 -3 0 -9 39 -13 87 -27 351 -107 610 -226 733
-122 126 -316 153 -482 69 -73 -38 -152 -122 -197 -212 -59 -117 -75 -189 -75
-332 0 -141 15 -203 74 -294 77 -119 182 -170 473 -231 295 -61 374 -94 483
-205 138 -141 227 -344 265 -604 17 -118 6 -399 -20 -519 -54 -253 -152 -446
-301 -592 -133 -130 -259 -189 -420 -197 -116 -7 -187 7 -279 53 -81 40 -159
119 -220 220 l-39 67 -6 -44 c-6 -49 -26 -279 -26 -303 0 -14 -20 -16 -152
-16 l-153 0 5 192 c5 201 -3 755 -16 1036 l-7 163 149 -3 149 -3 7 -75 c45
-479 184 -720 438 -759 103 -16 204 3 310 60 163 87 251 265 251 509 0 134
-17 210 -64 289 -59 99 -162 156 -343 191 -267 51 -388 92 -507 170 -237 154
-358 391 -387 753 -40 491 143 943 473 1166 140 95 331 120 462 62z m1995
-321 l0 -250 -180 0 -180 0 0 -957 c0 -796 3 -980 15 -1088 30 -254 88 -404
191 -495 154 -134 438 -122 574 26 49 53 110 180 134 276 42 173 46 288 46
1286 l0 952 -180 0 -180 0 0 250 0 250 475 0 475 0 0 -250 0 -250 -130 0 -130
0 0 -942 c0 -1089 -7 -1233 -72 -1508 -45 -193 -158 -422 -265 -539 -107 -118
-248 -171 -452 -171 -374 0 -655 266 -760 719 -62 267 -71 459 -71 1539 l0
902 -130 0 -130 0 0 250 0 250 475 0 475 0 0 -250z m2110 0 l0 -250 -181 0
-182 0 6 -72 c3 -40 31 -459 63 -930 32 -472 61 -858 64 -858 3 0 88 352 189
783 102 430 188 792 193 805 7 21 12 22 117 22 96 0 110 -2 115 -17 3 -10 82
-353 176 -763 193 -842 191 -832 197 -827 4 5 133 1761 133 1820 l0 37 -180 0
-180 0 0 250 0 250 430 0 430 0 0 -250 0 -250 -89 0 -89 0 -6 -62 c-3 -35 -58
-720 -122 -1523 -63 -803 -117 -1466 -119 -1472 -3 -10 -42 -13 -149 -13
l-144 0 -20 87 c-11 49 -104 464 -207 923 -198 887 -195 874 -201 868 -2 -3
-94 -422 -204 -933 -111 -511 -203 -932 -206 -937 -3 -4 -70 -8 -150 -8 -130
0 -144 2 -145 18 0 9 -51 699 -112 1532 l-112 1515 -92 3 -93 3 0 249 0 250
435 0 435 0 0 -250z"/>
    </g>
</svg>
